# xmcd CD database file
#
# Track frame offsets:
#	200
#	13450
#	25345
#	38950
#	52800
#	66475
#	80412
#	102987
#	115087
#	125212
#	138800
#	150387
#
# Disc length: 2188 seconds
#
# Revision: 1
# Processed by: cddbd v1.5.1PL0 Copyright (c) Steve Scherf et al.
# Submitted via: CDex 1.51
#
DISCID=a0088a0c
DTITLE=Banda Cuisillos - Banda Cuisillos
DYEAR=1996
DGENRE=Latin
TTITLE0=Como Sufro
TTITLE1=Que Linda Eres
TTITLE2=Mi Mejor Amiga
TTITLE3=Batelo Morena
TTITLE4=Pequeña Orgullosa
TTITLE5=El Novillo Despuntado
TTITLE6=Me Enamore
TTITLE7=Porque No Me Escuchas
TTITLE8=Pantalon Vaquero
TTITLE9=Decide
TTITLE10=Estraña Manera
TTITLE11=La Nena
EXTD=YEAR: 1996
EXTT0=
EXTT1=
EXTT2=
EXTT3=
EXTT4=
EXTT5=
EXTT6=
EXTT7=
EXTT8=
EXTT9=
EXTT10=
EXTT11=
PLAYORDER=
